<svg id="Capa_1" data-name="Capa 1" xmlns="http://www.w3.org/2000/svg" viewBox="0 0 841.89 595.28"><defs><style>.cls-1{fill:#2a2e6e;}.cls-2{fill:#3bb49a;}</style></defs><title>Mesa de trabajo 1 copia 2</title><path class="cls-1" d="M180.08,457.55a71,71,0,0,1-25.23,4.2q-46.24,0-46.24-44.74,0-42.35,46.24-42.34a71,71,0,0,1,25.23,4.2v14.41a59.94,59.94,0,0,0-24-4.8q-30.94,0-30.93,28.53,0,30.93,30.93,30.93a59.78,59.78,0,0,0,24-4.81Z"/><path class="cls-1" d="M341.89,461.15V375.27H357.8l45.35,62.58V375.27h15.31v85.88H402.55l-45.35-63.9v63.9Z"/><path class="cls-1" d="M517.24,375.27v13.81H492.61v72.07H476.7V389.08H452.07V375.27Z"/><path class="cls-1" d="M609.64,375.27V389h-43v21.62h41v14.24H566.46v22.52h44v13.81H550.84V375.27Z"/><path class="cls-2" d="M260.08,374.74c-33,0-43.5,10.47-43.5,43.51s10.47,43.5,43.5,43.5,43.51-10.47,43.51-43.5S293.12,374.74,260.08,374.74Zm0,73.21c-22.55,0-29.7-7.15-29.7-29.7s7.15-29.71,29.7-29.71,29.71,7.15,29.71,29.71S282.64,448,260.08,448Z"/><path class="cls-1" d="M658.87,461.15H642.55L679,375.34h17.1l37.2,85.81h-17.1l-29-69.43Z"/><path class="cls-1" d="M469.17,230c0,36.61-11.61,48.21-48.21,48.21-9.79,0-17.8-.83-24.26-2.74l29.1-29.11a2,2,0,0,1,2.8,0l8,8a2,2,0,0,0,3.35-1l11.21-52.21a2,2,0,0,0-2.35-2.35L396.57,210a2,2,0,0,0-1,3.34l8,8a2,2,0,0,1,0,2.8L375,252.59c-1.6-6.17-2.3-13.65-2.3-22.63,0-36.62,11.6-48.23,48.23-48.23S469.17,193.34,469.17,230Z"/><path class="cls-2" d="M487.6,307.25l-25.8-16.54a3.28,3.28,0,0,0-3-.29c-9.57,3.78-22,5.37-37.86,5.37-50,0-65.84-15.85-65.84-65.85S371,164.11,421,164.11c14.79,0,26.58,1.39,35.87,4.64a3.28,3.28,0,0,0,3-.43l24.95-17.54a3.31,3.31,0,0,0-.25-5.59C469.62,136.91,449,133.52,421,133.52c-73.22,0-96.44,23.2-96.44,96.42s23.22,96.44,96.44,96.44c30,0,51.57-3.89,66.62-13.52A3.33,3.33,0,0,0,487.6,307.25Z"/></svg>