<svg id="Capa_1" data-name="Capa 1" xmlns="http://www.w3.org/2000/svg" viewBox="0 0 583.11 203.77"><defs><style>.cls-1{fill:#5a5d70;}.cls-2{fill:#f28e33;}</style></defs><title>Mesa de trabajo 1 copia 3</title><path class="cls-1" d="M177.31,151.57V65.69h15.92l45.34,62.58V65.69h15.31v85.88H238l-45.35-63.9v63.9Z"/><path class="cls-1" d="M352.66,65.69V79.5H328v72.07H312.12V79.5H287.49V65.69Z"/><path class="cls-1" d="M445.06,65.69V79.38h-43V101h41v14.23H401.88v22.53h44v13.81H386.27V65.69Z"/><path class="cls-1" d="M494.3,151.57H478L514.4,65.76h17.1l37.2,85.81H551.6l-29-69.43Z"/><path class="cls-2" d="M154.71,103.34c0,36.61-11.61,48.22-48.21,48.22-9.79,0-17.8-.83-24.26-2.75l29.1-29.1a2,2,0,0,1,2.8,0l8,8a2,2,0,0,0,3.35-1l11.21-52.2a2,2,0,0,0-2.35-2.36L82.11,83.36a2,2,0,0,0-1,3.33l8,8a2,2,0,0,1,0,2.8L60.57,126c-1.6-6.17-2.3-13.65-2.3-22.64,0-36.61,11.6-48.22,48.23-48.22S154.71,66.73,154.71,103.34Z"/><path class="cls-1" d="M173.14,180.64l-25.8-16.54a3.28,3.28,0,0,0-3-.29c-9.57,3.78-22,5.37-37.86,5.37-50,0-65.84-15.85-65.84-65.85S56.5,37.49,106.5,37.49c14.79,0,26.58,1.4,35.87,4.65a3.34,3.34,0,0,0,3-.43l24.95-17.55a3.31,3.31,0,0,0-.25-5.59C155.16,10.29,134.49,6.91,106.5,6.91c-73.22,0-96.44,23.2-96.44,96.42s23.22,96.44,96.44,96.44c30,0,51.57-3.89,66.62-13.52A3.33,3.33,0,0,0,173.14,180.64Z"/></svg>