<?xml version="1.0" encoding="utf-8"?>
<!-- Generator: Adobe Illustrator 23.0.0, SVG Export Plug-In . SVG Version: 6.00 Build 0)  -->
<svg version="1.1" id="Capa_1" xmlns="http://www.w3.org/2000/svg" xmlns:xlink="http://www.w3.org/1999/xlink" x="0px" y="0px"
	 viewBox="0 0 583.11 203.77" style="enable-background:new 0 0 583.11 203.77;" xml:space="preserve">
<image style="overflow:visible;" width="590" height="1280" xlink:href="99E04195.jpg"  transform="matrix(0.4651 0 0 0.4651 -1226.9844 579.3052)">
</image>
<g>
	<rect x="-1086.81" y="-743.77" style="fill:#2A2E6E;" width="427.93" height="113.74"/>
	<rect x="-1086.81" y="-617.37" style="fill:#532684;" width="427.93" height="113.74"/>
	<rect x="-1086.81" y="-490.97" style="fill:#C62C88;" width="427.93" height="113.74"/>
	<rect x="-1086.81" y="-364.57" style="fill:#3BB49A;" width="427.93" height="113.74"/>
</g>
<g>
	<g>
		<g>
			<path style="fill:#2A2E6E;" d="M-834.49,964.69c-4.07,1.54-8.69,2.31-13.86,2.31c-16.95,0-25.42-8.2-25.42-24.59
				c0-15.51,8.47-23.27,25.42-23.27c5.17,0,9.79,0.77,13.86,2.31v7.92c-4.07-1.76-8.47-2.64-13.2-2.64c-11.33,0-17,5.23-17,15.68
				c0,11.33,5.67,17,17,17c4.73,0,9.13-0.88,13.2-2.64V964.69z"/>
			<path style="fill:#2A2E6E;" d="M-745.56,966.67v-47.2h8.75l24.92,34.4v-34.4h8.42v47.2h-8.75l-24.92-35.12v35.12H-745.56z"/>
			<path style="fill:#2A2E6E;" d="M-649.18,919.47v7.59h-13.53v39.61h-8.75v-39.61H-685v-7.59H-649.18z"/>
			<path style="fill:#2A2E6E;" d="M-598.39,919.47v7.53h-23.64v11.88h22.51v7.82h-22.61v12.38h24.2v7.59h-32.78v-47.2H-598.39z"/>
		</g>
		<g>
			<path style="fill:#3BB49A;" d="M-790.52,919.18c-18.16,0-23.91,5.75-23.91,23.91c0,18.16,5.75,23.91,23.91,23.91
				c18.16,0,23.91-5.75,23.91-23.91C-766.61,924.93-772.36,919.18-790.52,919.18z M-790.52,959.41c-12.4,0-16.33-3.93-16.33-16.33
				c0-12.4,3.93-16.33,16.33-16.33c12.4,0,16.33,3.93,16.33,16.33C-774.19,955.48-778.12,959.41-790.52,959.41z"/>
		</g>
		<path style="fill:#2A2E6E;" d="M-571.33,966.67h-8.97l20.02-47.16h9.4l20.45,47.16h-9.4l-15.96-38.16L-571.33,966.67z"/>
	</g>
	<g>
		<path style="fill:#2A2E6E;" d="M-675.6,839.6c0,20.12-6.38,26.5-26.5,26.5c-5.38,0-9.78-0.46-13.33-1.51l15.99-16
			c0.43-0.42,1.12-0.42,1.54,0l4.38,4.38c0.61,0.61,1.65,0.3,1.84-0.54l6.17-28.69c0.17-0.77-0.52-1.46-1.29-1.3l-28.69,6.17
			c-0.84,0.18-1.15,1.22-0.54,1.83l4.38,4.38c0.43,0.42,0.43,1.12,0,1.54l-15.68,15.68c-0.88-3.39-1.26-7.5-1.26-12.44
			c0-20.13,6.38-26.51,26.51-26.51C-681.98,813.09-675.6,819.47-675.6,839.6z"/>
		<g>
			<path style="fill:#3BB49A;" d="M-665.47,882.08l-14.18-9.09c-0.49-0.31-1.1-0.37-1.64-0.16c-5.26,2.08-12.09,2.95-20.81,2.95
				c-27.48,0-36.18-8.71-36.18-36.19c0-27.47,8.7-36.18,36.18-36.18c8.13,0,14.61,0.77,19.72,2.55c0.55,0.19,1.15,0.1,1.63-0.24
				l13.72-9.64c1.09-0.77,1.03-2.42-0.14-3.07c-8.18-4.55-19.54-6.41-34.93-6.41c-40.24,0-53.01,12.75-53.01,52.99
				c0,40.25,12.76,53.01,53.01,53.01c16.47,0,28.34-2.14,36.62-7.43C-664.36,884.44-664.35,882.8-665.47,882.08z"/>
		</g>
	</g>
</g>
<g>
	<g>
		<path style="fill:#5A5D70;" d="M177.31,151.57V65.69h15.92l45.34,62.58V65.69h15.31v85.88h-15.92l-45.34-63.9v63.9H177.31z"/>
		<path style="fill:#5A5D70;" d="M352.66,65.69V79.5h-24.62v72.07h-15.92V79.5h-24.62V65.69H352.66z"/>
		<path style="fill:#5A5D70;" d="M445.06,65.69v13.69h-43V101h40.96v14.23h-41.14v22.52h44.02v13.81h-59.64V65.69H445.06z"/>
	</g>
	<path style="fill:#5A5D70;" d="M494.3,151.57h-16.32l36.42-85.81h17.1l37.2,85.81h-17.1l-29.04-69.43L494.3,151.57z"/>
</g>
<g>
	<path style="fill:#F28E33;" d="M154.71,103.34c0,36.61-11.61,48.21-48.21,48.21c-9.79,0-17.79-0.83-24.26-2.74l29.1-29.11
		c0.78-0.77,2.03-0.77,2.8,0l7.96,7.96c1.11,1.11,3.01,0.55,3.34-0.99l11.22-52.2c0.3-1.41-0.94-2.65-2.35-2.36l-52.2,11.23
		c-1.53,0.33-2.09,2.22-0.99,3.34l7.96,7.96c0.78,0.77,0.78,2.03,0,2.8l-28.52,28.52c-1.6-6.17-2.3-13.65-2.3-22.63
		c0-36.62,11.6-48.23,48.23-48.23C143.1,55.12,154.71,66.73,154.71,103.34z"/>
	<g>
		<path style="fill:#5A5D70;" d="M173.14,180.64l-25.8-16.54c-0.89-0.57-2-0.68-2.98-0.3c-9.57,3.78-22,5.38-37.86,5.38
			c-50,0-65.84-15.85-65.84-65.85c0-49.98,15.84-65.84,65.84-65.84c14.79,0,26.59,1.39,35.88,4.64c0.99,0.35,2.1,0.18,2.97-0.43
			l24.96-17.54c1.99-1.4,1.87-4.41-0.25-5.59c-14.88-8.28-35.55-11.66-63.54-11.66c-73.22,0-96.44,23.2-96.44,96.42
			c0,73.23,23.22,96.44,96.44,96.44c29.97,0,51.57-3.89,66.62-13.52C175.16,184.93,175.19,181.95,173.14,180.64z"/>
	</g>
</g>
<g>
	<g>
		<g>
			<path style="fill:#2A2E6E;" d="M-1113.71,347.38c-7.41,2.8-15.82,4.2-25.22,4.2c-30.83,0-46.25-14.91-46.25-44.74
				c0-28.23,15.41-42.34,46.25-42.34c9.41,0,17.82,1.4,25.22,4.2v14.41c-7.41-3.2-15.42-4.8-24.02-4.8
				c-20.62,0-30.93,9.51-30.93,28.53c0,20.62,10.31,30.93,30.93,30.93c8.61,0,16.62-1.6,24.02-4.8V347.38z"/>
			<path style="fill:#2A2E6E;" d="M-951.9,350.98V265.1h15.92l45.34,62.58V265.1h15.31v85.88h-15.92l-45.34-63.9v63.9H-951.9z"/>
			<path style="fill:#2A2E6E;" d="M-776.56,265.1v13.81h-24.62v72.07h-15.92v-72.07h-24.62V265.1H-776.56z"/>
			<path style="fill:#2A2E6E;" d="M-684.15,265.1v13.69h-43v21.62h40.96v14.23h-41.14v22.52h44.02v13.81h-59.64V265.1H-684.15z"/>
		</g>
		<g>
			<path style="fill:#3BB49A;" d="M-1033.71,264.57c-33.03,0-43.5,10.47-43.5,43.5c0,33.03,10.47,43.5,43.5,43.5
				c33.03,0,43.5-10.47,43.5-43.5C-990.21,275.04-1000.67,264.57-1033.71,264.57z M-1033.71,337.78c-22.55,0-29.7-7.15-29.7-29.7
				c0-22.55,7.15-29.7,29.7-29.7c22.55,0,29.7,7.15,29.7,29.7C-1004.01,330.63-1011.15,337.78-1033.71,337.78z"/>
		</g>
		<path style="fill:#2A2E6E;" d="M-634.92,350.98h-16.32l36.42-85.81h17.1l37.2,85.81h-17.1l-29.04-69.43L-634.92,350.98z"/>
	</g>
	<g>
		<path style="fill:#2A2E6E;" d="M-824.62,119.79c0,36.61-11.61,48.21-48.21,48.21c-9.79,0-17.79-0.83-24.26-2.74l29.1-29.11
			c0.78-0.77,2.03-0.77,2.8,0l7.96,7.96c1.11,1.11,3.01,0.55,3.34-0.99l11.22-52.2c0.3-1.41-0.94-2.65-2.35-2.36l-52.2,11.23
			c-1.53,0.33-2.09,2.22-0.99,3.34l7.96,7.96c0.78,0.77,0.78,2.03,0,2.8l-28.52,28.52c-1.6-6.17-2.3-13.65-2.3-22.63
			c0-36.62,11.6-48.23,48.23-48.23C-836.23,71.56-824.62,83.17-824.62,119.79z"/>
		<g>
			<path style="fill:#3BB49A;" d="M-806.19,197.09l-25.8-16.54c-0.89-0.57-2-0.68-2.98-0.3c-9.57,3.78-22,5.38-37.86,5.38
				c-50,0-65.84-15.85-65.84-65.85c0-49.98,15.84-65.84,65.84-65.84c14.79,0,26.59,1.39,35.88,4.64c0.99,0.35,2.1,0.18,2.97-0.43
				l24.96-17.54c1.99-1.4,1.87-4.41-0.25-5.59c-14.88-8.28-35.55-11.66-63.54-11.66c-73.22,0-96.44,23.2-96.44,96.42
				c0,73.23,23.22,96.44,96.44,96.44c29.97,0,51.57-3.89,66.62-13.52C-804.17,201.38-804.15,198.4-806.19,197.09z"/>
		</g>
	</g>
</g>
</svg>
