<?xml version="1.0" encoding="utf-8"?>
<!-- Generator: Adobe Illustrator 23.0.0, SVG Export Plug-In . SVG Version: 6.00 Build 0)  -->
<svg version="1.1" id="Capa_1" xmlns="http://www.w3.org/2000/svg" xmlns:xlink="http://www.w3.org/1999/xlink" x="0px" y="0px"
	 viewBox="0 0 515.15 183.03" style="enable-background:new 0 0 515.15 183.03;" xml:space="preserve">
<g>
	<g>
		<path style="fill:#5A5D70;" d="M155.79,134.97V56.59h14.53l41.38,57.12V56.59h13.98v78.38h-14.53l-41.38-58.32v58.32H155.79z"/>
		<path style="fill:#5A5D70;" d="M315.82,56.59V69.2h-22.47v65.78h-14.53V69.2h-22.47V56.59H315.82z"/>
		<path style="fill:#5A5D70;" d="M400.16,56.59v12.5h-39.25v19.73h37.38v12.99h-37.55v20.55h40.18v12.61H346.5V56.59H400.16z"/>
	</g>
	<path style="fill:#5A5D70;" d="M445.09,134.97h-14.9l33.24-78.31h15.61L513,134.97h-15.61l-26.51-63.36L445.09,134.97z"/>
</g>
<g>
	<path style="fill:#F28E33;" d="M135.17,90.96c0,33.41-10.6,44-44,44c-8.93,0-16.24-0.76-22.14-2.5l26.56-26.56
		c0.71-0.7,1.85-0.7,2.56,0l7.27,7.27c1.01,1.01,2.75,0.5,3.05-0.9l10.24-47.64c0.28-1.29-0.86-2.42-2.14-2.15L68.91,72.72
		c-1.4,0.3-1.91,2.03-0.9,3.04l7.27,7.27c0.71,0.7,0.71,1.85,0,2.56l-26.03,26.03c-1.46-5.63-2.1-12.46-2.1-20.66
		c0-33.42,10.59-44.02,44.02-44.02C124.57,46.94,135.17,57.54,135.17,90.96z"/>
	<g>
		<path style="fill:#5A5D70;" d="M151.99,161.51l-23.55-15.1c-0.81-0.52-1.83-0.62-2.72-0.27c-8.74,3.45-20.08,4.91-34.56,4.91
			c-45.63,0-60.09-14.47-60.09-60.1c0-45.62,14.45-60.09,60.09-60.09c13.5,0,24.26,1.27,32.74,4.24c0.91,0.32,1.91,0.16,2.71-0.39
			l22.78-16.01c1.81-1.28,1.71-4.03-0.23-5.1C135.58,6.04,116.71,2.95,91.16,2.95c-66.82,0-88.02,21.17-88.02,88
			c0,66.84,21.19,88.02,88.02,88.02c27.36,0,47.07-3.55,60.8-12.34C153.83,165.42,153.86,162.7,151.99,161.51z"/>
	</g>
</g>
</svg>
