<svg id="Capa_1" data-name="Capa 1" xmlns="http://www.w3.org/2000/svg" viewBox="0 0 425.16 223.39"><defs><style>.cls-1{fill:#2a2e6e;}.cls-2{fill:#3bb49a;}</style></defs><title>V1.1LogContea</title><path class="cls-1" d="M59.18,220.53A48.23,48.23,0,0,1,42,223.39q-31.47,0-31.48-30.45,0-28.81,31.48-28.82A48.45,48.45,0,0,1,59.18,167v9.81a40.94,40.94,0,0,0-16.35-3.27q-21.06,0-21.06,19.42Q21.77,214,42.83,214a40.77,40.77,0,0,0,16.35-3.27Z" transform="translate(-10.53)"/><path class="cls-1" d="M169.31,223V164.53h10.83L211,207.13v-42.6h10.42V223H210.59l-30.86-43.5V223Z" transform="translate(-10.53)"/><path class="cls-1" d="M288.65,164.53v9.4H271.89V223H261.06V173.93H244.3v-9.4Z" transform="translate(-10.53)"/><path class="cls-1" d="M351.54,164.53v9.32H322.27v14.72h27.88v9.69h-28v15.32h30V223H311.52V164.53Z" transform="translate(-10.53)"/><path class="cls-2" d="M113.63,164.17C91.14,164.17,84,171.3,84,193.78s7.12,29.61,29.61,29.61,29.61-7.12,29.61-29.61S136.11,164.17,113.63,164.17Zm0,49.83c-15.35,0-20.22-4.86-20.22-20.22s4.87-20.21,20.22-20.21,20.21,4.86,20.21,20.21S129,214,113.63,214Z" transform="translate(-10.53)"/><path class="cls-1" d="M385.05,223H373.94l24.79-58.4h11.64L435.69,223H424.05l-19.76-47.25Z" transform="translate(-10.53)"/><path class="cls-1" d="M255.93,65.63c0,24.92-7.9,32.82-32.81,32.82-6.66,0-12.11-.57-16.51-1.87l19.81-19.81a1.33,1.33,0,0,1,1.9,0l5.42,5.42a1.36,1.36,0,0,0,2.28-.67L243.65,46a1.35,1.35,0,0,0-1.6-1.61L206.52,52a1.35,1.35,0,0,0-.67,2.27l5.42,5.42a1.35,1.35,0,0,1,0,1.91L191.86,81a62.35,62.35,0,0,1-1.56-15.41c0-24.92,7.89-32.82,32.82-32.82S255.93,40.71,255.93,65.63Z" transform="translate(-10.53)"/><path class="cls-2" d="M268.48,118.24,250.92,107a2.28,2.28,0,0,0-2-.2c-6.51,2.58-15,3.66-25.77,3.66-34,0-44.81-10.79-44.81-44.82s10.78-44.81,44.81-44.81c10.07,0,18.09,1,24.42,3.16a2.24,2.24,0,0,0,2-.29l17-11.94a2.25,2.25,0,0,0-.17-3.8C256.24,2.3,242.17,0,223.12,0c-49.83,0-65.64,15.79-65.64,65.62s15.81,65.64,65.64,65.64c20.4,0,35.1-2.65,45.34-9.2A2.27,2.27,0,0,0,268.48,118.24Z" transform="translate(-10.53)"/></svg>