<?xml version="1.0" encoding="utf-8"?>
<!-- Generator: Adobe Illustrator 23.0.0, SVG Export Plug-In . SVG Version: 6.00 Build 0)  -->
<svg version="1.1" id="Capa_1" xmlns="http://www.w3.org/2000/svg" xmlns:xlink="http://www.w3.org/1999/xlink" x="0px" y="0px"
	 viewBox="0 0 445.33 234.16" style="enable-background:new 0 0 445.33 234.16;" xml:space="preserve">
<g>
	<g>
		<g>
			<path style="fill:#2A2E6E;" d="M59.18,220.53c-5.04,1.91-10.76,2.86-17.17,2.86c-20.98,0-31.47-10.15-31.47-30.45
				c0-19.21,10.49-28.82,31.47-28.82c6.4,0,12.13,0.95,17.17,2.86v9.81c-5.04-2.18-10.49-3.27-16.35-3.27
				c-14.03,0-21.05,6.47-21.05,19.42c0,14.03,7.02,21.05,21.05,21.05c5.86,0,11.31-1.09,16.35-3.27V220.53z"/>
			<path style="fill:#2A2E6E;" d="M169.31,222.99v-58.45h10.83L211,207.13v-42.59h10.42v58.45h-10.83l-30.86-43.49v43.49H169.31z"/>
			<path style="fill:#2A2E6E;" d="M288.65,164.53v9.4h-16.76v49.05h-10.83v-49.05H244.3v-9.4H288.65z"/>
			<path style="fill:#2A2E6E;" d="M351.54,164.53v9.32h-29.27v14.72h27.88v9.69h-28v15.33h29.96v9.4h-40.59v-58.45H351.54z"/>
		</g>
		<g>
			<path style="fill:#3BB49A;" d="M113.63,164.17c-22.48,0-29.61,7.13-29.61,29.61c0,22.48,7.13,29.61,29.61,29.61
				s29.61-7.13,29.61-29.61C143.24,171.3,136.11,164.17,113.63,164.17z M113.63,214c-15.35,0-20.22-4.87-20.22-20.22
				c0-15.35,4.86-20.22,20.22-20.22s20.22,4.86,20.22,20.22C133.84,209.14,128.98,214,113.63,214z"/>
		</g>
		<path style="fill:#2A2E6E;" d="M385.05,222.98h-11.11l24.79-58.4h11.64l25.32,58.4h-11.64l-19.77-47.25L385.05,222.98z"/>
	</g>
	<g>
		<path style="fill:#2A2E6E;" d="M255.93,65.63c0,24.92-7.9,32.81-32.81,32.81c-6.66,0-12.11-0.57-16.51-1.87l19.81-19.81
			c0.53-0.52,1.38-0.52,1.91,0l5.42,5.42c0.76,0.76,2.05,0.37,2.28-0.67l7.63-35.53c0.21-0.96-0.64-1.81-1.6-1.6l-35.53,7.64
			c-1.04,0.22-1.42,1.51-0.67,2.27l5.42,5.42c0.53,0.52,0.53,1.38,0,1.91l-19.41,19.41c-1.09-4.2-1.56-9.29-1.56-15.41
			c0-24.92,7.9-32.82,32.82-32.82C248.03,32.81,255.93,40.71,255.93,65.63z"/>
		<g>
			<path style="fill:#3BB49A;" d="M268.48,118.24l-17.56-11.26c-0.61-0.39-1.36-0.46-2.03-0.2c-6.51,2.57-14.98,3.66-25.77,3.66
				c-34.03,0-44.81-10.79-44.81-44.82c0-34.02,10.78-44.81,44.81-44.81c10.07,0,18.09,0.95,24.42,3.16
				c0.68,0.24,1.43,0.12,2.02-0.29l16.98-11.94c1.35-0.95,1.27-3-0.17-3.8C256.24,2.3,242.17,0,223.12,0
				c-49.83,0-65.64,15.79-65.64,65.62c0,49.84,15.8,65.64,65.64,65.64c20.4,0,35.1-2.65,45.34-9.2
				C269.86,121.16,269.87,119.14,268.48,118.24z"/>
		</g>
	</g>
</g>
</svg>
